<svg width="36" height="49" viewBox="0 0 36 49" fill="none" xmlns="http://www.w3.org/2000/svg">
<path d="M27.74 48.8V35H8.48C6.92 35 5.52 34.62 4.28 33.86C3.04 33.1 2.04 32.1 1.28 30.86C0.56 29.62 0.2 28.24 0.2 26.72V8.48C0.2 6.96 0.56 5.58 1.28 4.34C2.04 3.1 3.04 2.1 4.28 1.34C5.52 0.579997 6.92 0.199997 8.48 0.199997H35.6V48.8H27.74ZM8.84 27.14H27.02C27.22 27.14 27.38 27.08 27.5 26.96C27.66 26.8 27.74 26.62 27.74 26.42V8.78C27.74 8.58 27.66 8.42 27.5 8.3C27.38 8.14 27.22 8.06 27.02 8.06H8.84C8.64 8.06 8.46 8.14 8.3 8.3C8.18 8.42 8.12 8.58 8.12 8.78V26.42C8.12 26.62 8.18 26.8 8.3 26.96C8.46 27.08 8.64 27.14 8.84 27.14Z" fill="url(#paint0_linear_131_6)"/>
<defs>
<linearGradient id="paint0_linear_131_6" x1="19" y1="-26" x2="19" y2="124" gradientUnits="userSpaceOnUse">
<stop stop-color="#6C66DB"/>
<stop offset="1" stop-color="#FF03FA"/>
</linearGradient>
</defs>
</svg>
