<svg width="121" height="67" viewBox="0 0 121 67" fill="none" xmlns="http://www.w3.org/2000/svg">
<path d="M1.2 18.48C1.2 16.2 2 14.26 3.6 12.66C5.24 11.02 7.2 10.2 9.48 10.2H36.6V58.8H28.74V45H9.48C7.2 45 5.24 44.2 3.6 42.6C2 40.96 1.2 39 1.2 36.72V18.48ZM9.12 18.48V36.72C9.12 37 9.24 37.14 9.48 37.14H28.32C28.6 37.14 28.74 37 28.74 36.72V18.48C28.74 18.2 28.6 18.06 28.32 18.06H9.48C9.24 18.06 9.12 18.2 9.12 18.48Z" fill="url(#paint0_linear_1_374)"/>
<path d="M47.4438 21.8H60.3238V27.04H47.4438C47.2571 27.04 47.1638 27.1333 47.1638 27.32V45H41.9238V27.32C41.9238 25.8 42.4571 24.5067 43.5238 23.44C44.6171 22.3467 45.9238 21.8 47.4438 21.8ZM63.0566 45V21.8H68.2966V45H63.0566ZM63.0566 14.2H68.2966V19.48H63.0566V14.2ZM90.4325 21.8C91.9525 21.8 93.2458 22.3467 94.3125 23.44C95.4058 24.5067 95.9525 25.8 95.9525 27.32V45H77.9125C76.3925 45 75.0858 44.4667 73.9925 43.4C72.9258 42.3067 72.3925 41 72.3925 39.48V30.76H90.7125V27.32C90.7125 27.1333 90.6192 27.04 90.4325 27.04H72.3925V21.8H90.4325ZM90.7125 39.76V36.04H77.6325V39.48C77.6325 39.6667 77.7258 39.76 77.9125 39.76H90.7125Z" fill="white"/>
<path d="M69.528 51.56V50.684H75.012V51.56H72.816V59H71.724V51.56H69.528ZM80.8548 50.684V51.548H77.5428V54.38H80.4948V55.232H77.5428V58.136H80.8548V59H76.4508V50.684H80.8548ZM86.3134 59.072C85.1214 59.072 84.1174 58.672 83.3014 57.872C82.4854 57.072 82.0774 56.06 82.0774 54.836C82.0774 53.604 82.4854 52.592 83.3014 51.8C84.1174 51 85.1214 50.6 86.3134 50.6C87.1774 50.6 87.9454 50.804 88.6174 51.212C89.2974 51.62 89.7974 52.208 90.1174 52.976H88.7974C88.3014 52.04 87.4734 51.572 86.3134 51.572C85.4094 51.572 84.6614 51.872 84.0694 52.472C83.4854 53.064 83.1934 53.852 83.1934 54.836C83.1934 55.82 83.4854 56.612 84.0694 57.212C84.6614 57.812 85.4094 58.112 86.3134 58.112C86.8654 58.112 87.3574 57.992 87.7894 57.752C88.2214 57.504 88.5574 57.152 88.7974 56.696H90.1174C89.7974 57.464 89.2974 58.052 88.6174 58.46C87.9454 58.868 87.1774 59.072 86.3134 59.072ZM97.1175 50.684H98.2215V59H97.1175V55.244H92.9295V59H91.8375V50.684H92.9295V54.38H97.1175V50.684Z" fill="white"/>
<defs>
<linearGradient id="paint0_linear_1_374" x1="49.5" y1="0" x2="49.5" y2="60" gradientUnits="userSpaceOnUse">
<stop stop-color="#6C66DB"/>
<stop offset="1" stop-color="#FF03FA"/>
</linearGradient>
</defs>
</svg>
